<svg xmlns="http://www.w3.org/2000/svg" width="192" height="192" viewBox="0 0 192 192">
  <defs>
    <linearGradient id="bg" x1="0%" y1="0%" x2="100%" y2="100%">
      <stop offset="0%" style="stop-color:#1e3a5f"/>
      <stop offset="100%" style="stop-color:#0a0a0a"/>
    </linearGradient>
  </defs>
  <rect width="192" height="192" rx="32" fill="url(#bg)"/>
  <!-- Microphone icon -->
  <path d="M96 40 C76 40, 64 56, 64 76 L64 100 C64 120, 76 136, 96 136 C116 136, 128 120, 128 100 L128 76 C128 56, 116 40, 96 40 Z" fill="#22d3ee"/>
  <path d="M52 100 C52 130, 72 152, 96 152 C120 152, 140 130, 140 100" stroke="#22d3ee" stroke-width="6" fill="none" stroke-linecap="round"/>
  <line x1="96" y1="152" x2="96" y2="170" stroke="#22d3ee" stroke-width="6" stroke-linecap="round"/>
  <line x1="76" y1="170" x2="116" y2="170" stroke="#22d3ee" stroke-width="6" stroke-linecap="round"/>
</svg>
