<svg xmlns="http://www.w3.org/2000/svg" width="512" height="512" viewBox="0 0 512 512">
  <defs>
    <linearGradient id="bg" x1="0%" y1="0%" x2="100%" y2="100%">
      <stop offset="0%" style="stop-color:#1e3a5f"/>
      <stop offset="100%" style="stop-color:#0a0a0a"/>
    </linearGradient>
  </defs>
  <rect width="512" height="512" rx="80" fill="url(#bg)"/>
  <!-- Microphone icon -->
  <path d="M256 100 C200 100, 170 148, 170 200 L170 265 C170 320, 200 365, 256 365 C312 365, 340 320, 340 265 L340 200 C340 148, 312 100, 256 100 Z" fill="#22d3ee"/>
  <path d="M140 265 C140 350, 190 408, 256 408 C322 408, 370 350, 370 265" stroke="#22d3ee" stroke-width="16" fill="none" stroke-linecap="round"/>
  <line x1="256" y1="408" x2="256" y2="455" stroke="#22d3ee" stroke-width="16" stroke-linecap="round"/>
  <line x1="200" y1="455" x2="312" y2="455" stroke="#22d3ee" stroke-width="16" stroke-linecap="round"/>
</svg>
